<svg version="1.0" xmlns="http://www.w3.org/2000/svg"
 width="50" height="50" viewBox="0 0 100 100"
 preserveAspectRatio="xMidYMid meet">
<defs><style>.cart-cls-1{fill:#ffcb04;}.cls-2{fill:none;}</style></defs>
<path class="cart-cls-1" d="M74.69,68.39a2.06,2.06,0,0,1-.74-.31h8.63V61.13H30.12c-2.81,0-4-1.1-4.26-3.88-.07-.74-.16-1.49-.25-2.37h1c14.84,0,29.69-.08,44.53,0A11,11,0,0,0,82.42,45.8c2-10.84,4.29-21.64,6.47-32.55H21.21c-.18-1.49-.32-2.92-.53-4.34A10.28,10.28,0,0,0,10.59,0C7.06,0,3.53,0,0,0V7H10.07a3.53,3.53,0,0,1,3.83,3.49c.72,6.88,1.47,13.75,2.2,20.62s1.43,13.63,2.15,20.44c.27,2.53.53,5.06.84,7.59a10.31,10.31,0,0,0,8.65,8.83l1.38.22a10.54,10.54,0,0,0-7.29,4.7,10.41,10.41,0,0,0,6.78,15.88c.19,0,.37.12.56.18H32a23.19,23.19,0,0,0,4.56-2,9.74,9.74,0,0,0,4.23-10.52c-.92-4.44-3.8-7.15-8.23-8.18a.36.36,0,0,1-.23-.13H70.53a11,11,0,0,0-5.16,2.56,10,10,0,0,0-3.13,10.63,10.11,10.11,0,0,0,8.05,7.41l.55.18h2.78a22.94,22.94,0,0,0,4.56-2,9.71,9.71,0,0,0,4.24-10.44A10,10,0,0,0,74.69,68.39ZM21.92,20.22H80.4c-.37,1.9-.73,3.78-1.11,5.67q-1.87,9.39-3.76,18.78a3.59,3.59,0,0,1-3.91,3.26H24.86C23.87,38.64,22.9,29.46,21.92,20.22ZM34,78.52A3.47,3.47,0,1,1,30.58,75,3.48,3.48,0,0,1,34,78.52ZM72.23,82A3.47,3.47,0,1,1,75.7,78.5,3.48,3.48,0,0,1,72.23,82Z"></path>
<rect class="cart-cls-1" x="34.09" y="27.14" width="6.84" height="13.78"></rect>
<rect class="cart-cls-1" x="47.99" y="27.13" width="6.83" height="13.81"></rect>
<rect class="cart-cls-1" x="61.86" y="27.17" width="6.84" height="13.78"></rect>
<rect class="cls-2" width="88.89" height="88.91"></rect>
</svg>