<svg version="1.0" xmlns="http://www.w3.org/2000/svg"
 width="50" height="50" viewBox="0 0 100 100"
 preserveAspectRatio="xMidYMid meet">
 <defs><style>.phone-cls-1{fill:#00344e;}</style></defs>
<path class="phone-cls-1" d="M71,63.18a8.44,8.44,0,0,0-9.85-1.29,15.89,15.89,0,0,0-3.11,2.43l-.59.54c-.69.62-1.33,1.3-1.94,2l-.54.56A74.32,74.32,0,0,1,32.69,45.07l1-1c.95-.92,1.88-1.83,2.78-2.76a8.9,8.9,0,0,0,0-12.8c-2.45-2.49-5-5-7.82-7.79a9,9,0,0,0-12.86,0c-1.22,1.17-2.47,2.37-3.64,3.63a18.16,18.16,0,0,0-5,14.16,40.92,40.92,0,0,0,4.74,16.24A76.24,76.24,0,0,0,47.58,89.21a35.11,35.11,0,0,0,15,3.66l1.12,0A17.62,17.62,0,0,0,75,88.56a55.21,55.21,0,0,0,4.84-4.84,8.73,8.73,0,0,0,0-11.64C77.3,69.27,74.4,66.36,71,63.18Zm3.5,16.56-.49.5c-.93,1-1.89,1.93-2.88,2.83a12,12,0,0,1-8.06,3.12,33.31,33.31,0,0,1-11.73-2.71C43.15,80,35.72,74.6,28.66,67A64.81,64.81,0,0,1,17.24,50.43a34.94,34.94,0,0,1-3.48-12.3,11.59,11.59,0,0,1,3.48-9.62Q18.8,27,20.4,25.45a2.64,2.64,0,0,1,1.8-.83,2.59,2.59,0,0,1,1.81.87q3.85,3.87,7.69,7.78a2.32,2.32,0,0,1,0,3.52q-1.56,1.59-3.14,3.15L26.47,42a3.37,3.37,0,0,0-.56,4.72,79.93,79.93,0,0,0,27.54,27.5,3.36,3.36,0,0,0,4.65-.57c.9-.89,1.8-1.78,2.69-2.68l2.43-2.43a2.38,2.38,0,0,1,3.77,0q3.8,3.77,7.55,7.55A2.3,2.3,0,0,1,74.54,79.74Z"></path>
<path class="phone-cls-1" d="M93,48.93a44.73,44.73,0,0,0-3-14.6A43.13,43.13,0,0,0,50.5,7.13h-.13a3.33,3.33,0,0,0-3.6,3.27c0,1.86,1.37,3.22,3.48,3.4l1.58.12a37.93,37.93,0,0,1,6.12.77C70.89,17.82,79.79,25.8,84.37,38.4a34.54,34.54,0,0,1,1.94,11.86,3.34,3.34,0,0,0,1,2.42,3.24,3.24,0,0,0,2.29.94h.06a3.35,3.35,0,0,0,3.27-3.34c0-.31,0-.62,0-.93Z"></path>
<path class="phone-cls-1" d="M66.86,41.17a15.92,15.92,0,0,1,1.61,7.19,3.3,3.3,0,0,0,3.3,3.31,3.37,3.37,0,0,0,3.33-3.29c0-.17,0-.35,0-.6l-.14-2A23.15,23.15,0,0,0,52.37,25a3.34,3.34,0,1,0-.17,6.65A16.49,16.49,0,0,1,66.86,41.17Z"></path>
</svg>
